<?xml version="1.0" encoding="UTF-8"?>
<svg width="90px" height="56px" viewBox="0 0 90 56" version="1.1" xmlns="http://www.w3.org/2000/svg" xmlns:xlink="http://www.w3.org/1999/xlink">
    <!-- Generator: sketchtool 51.3 (57544) - http://www.bohemiancoding.com/sketch -->
    <title>A21EB5C9-F3AE-4400-8CDC-C0898C86DBD4-555-000021F6E0A34FDB</title>
    <desc>Created with sketchtool.</desc>
    <defs>
        <path d="M10.523,0 C12.349,0 39.815,0.897 39.815,0.897 L41.614,5.745 L75.22,6.436 C75.22,6.436 85.74,13.04 88.84,14.644 C90.193,15.343 90.354,16.534 89.364,17.937 L87.6223704,19.9385436 L85.208,20.4911667 L85.208,17.819 L74.083,8.866 C73.784,8.915 39.117,8.741 39.117,8.741 L37.49,3.67 L9.408,2.347 C9.409,2.348 8.698,0 10.523,0 Z M9.57989172,3.13930126 C9.88689172,4.10830126 10.407,5.36693117 12.497,5.52 C14.587,5.67306883 33.921,7.457 33.921,7.457 L37.507,21.213 L43.513,28.381 L84.407,20.64 L84.433,18.185 L73.81,9.637 L38.553,9.512 L36.919,4.417 L10.407,3.167 L9.57989172,3.13930126 Z M48.424,31.646 L44.822,31.646 C44.396,31.646 44.05,31.993 44.05,32.418 L44.05,42.321 C44.05,42.746 44.396,43.092 44.822,43.092 L48.424,43.092 C48.849,43.092 49.195,42.745 49.195,42.321 L49.195,32.418 C49.195,31.993 48.849,31.646 48.424,31.646 Z M70.772,24.022 L70.772,28.643 C70.093,28.55 69.393,28.499 68.684,28.499 C60.884,28.499 54.525,34.848 54.525,42.657 L49.925,42.657 C49.956,42.543 49.966,42.441 49.966,42.327 L49.966,32.419 C49.966,31.565 49.277,30.875 48.423,30.875 L44.821,30.875 C43.967,30.875 43.278,31.564 43.278,32.419 L43.278,42.327 C43.278,42.441 43.288,42.543 43.319,42.657 L39.913,42.657 C39.913,34.847 33.564,28.499 25.754,28.499 C18.016,28.499 11.719,34.95 11.595,42.657 L6.09,42.657 L6.09,50.136 C6.09,50.353 5.926,50.517 5.71,50.517 L1.523,50.517 C1.193,50.517 1.019,50.353 1.019,50.136 L1.019,42.553 C0.422,42.348 0,41.771 0,41.113 L0,40.907 C0,40.238 0.422,39.673 1.019,39.467 L1.019,14.987 C1.019,14.781 1.194,14.606 1.399,14.606 L13.562,14.606 C13.5893333,14.606 13.627,12.6923333 13.675,8.865 C13.675,8.865 14.364,8.865 15.218,8.865 L29.901,8.865 C30.755,8.865 31.444,9.565 31.444,10.408 L31.444,13.124 L31.876,13.124 C32.73,13.124 33.419,13.813 33.419,14.667 L33.419,20.028 L34.561,20.028 C35.601,20.028 36.187,20.81 36.805,21.571 L43.215,29.227 L70.772,24.022 Z M1.791,24.053 L5.124,24.053 L5.124,21.964 L1.791,21.964 L1.791,24.053 Z M1.791,26.923 L5.124,26.923 L5.124,24.834 L1.791,24.834 L1.791,26.923 Z M1.791,29.794 L5.124,29.794 L5.124,27.694 L1.791,27.694 L1.791,29.794 Z M1.791,32.666 L5.124,32.666 L5.124,30.566 L1.791,30.566 L1.791,32.666 Z M1.791,35.525 L5.124,35.525 L5.124,33.437 L1.791,33.437 L1.791,35.525 Z M1.791,38.284 L5.124,38.284 L5.124,36.297 L1.791,36.297 L1.791,38.284 Z M1.791,39.364 L5.124,39.364 L5.124,39.055 L1.791,39.055 L1.791,39.364 Z M1.791,44.014 L5.32,44.014 L5.32,42.657 L1.791,42.657 L1.791,44.014 Z M1.791,46.885 L5.32,46.885 L5.32,44.785 L1.791,44.785 L1.791,46.885 Z M1.791,49.746 L5.32,49.746 L5.32,47.657 L1.791,47.657 L1.791,49.746 Z M8.51,15.378 L1.791,15.378 L1.791,21.192 L5.176,21.192 C5.341,20.534 5.948,20.04 6.658,20.029 L8.51,20.029 L8.51,15.378 Z M13.675,15.357 C13.644,15.368 13.603,15.378 13.562,15.378 L9.281,15.378 L9.281,20.029 L13.675,20.029 L13.675,15.357 Z M23,11.612 C23,10.769 21.4581435,10.069 19.5470471,10.069 L14.55,10.069 L14.55,16.222 L19.5470471,16.222 C21.4581435,16.222 23,15.533 23,14.679 L23,11.612 Z M37.966,44.213 L37.763,45.342 L38.191,45.613 C37.963,46.57 37.628,47.483 37.197,48.342 L36.698,48.276 L36.121,49.268 L36.435,49.675 C35.897,50.487 35.266,51.228 34.562,51.894 L34.116,51.662 L33.236,52.398 L33.388,52.877 C32.613,53.453 31.776,53.95 30.879,54.341 L30.533,53.962 L29.455,54.352 L29.434,54.866 C28.519,55.137 27.559,55.3 26.571,55.359 L26.381,54.897 L25.235,54.895 L25.044,55.359 C24.056,55.299 23.096,55.138 22.181,54.867 L22.16,54.354 L21.083,53.96 L20.735,54.341 C19.839,53.951 19.002,53.454 18.227,52.878 L18.378,52.4 L17.5,51.661 L17.053,51.895 C16.349,51.228 15.718,50.488 15.18,49.675 L15.492,49.269 L14.919,48.276 L14.418,48.343 C13.988,47.483 13.652,46.57 13.424,45.612 L13.85,45.341 L13.652,44.212 L13.153,44.102 C13.099,43.625 13.065,43.142 13.065,42.651 C13.065,42.159 13.099,41.675 13.153,41.2 L13.651,41.09 L13.851,39.96 L13.424,39.689 C13.652,38.733 13.987,37.819 14.418,36.959 L14.919,37.025 L15.492,36.033 L15.18,35.627 C15.718,34.815 16.35,34.074 17.054,33.408 L17.501,33.641 L18.379,32.904 L18.228,32.426 C19.004,31.85 19.841,31.354 20.738,30.964 L21.084,31.342 L22.162,30.949 L22.183,30.44 C23.099,30.169 24.058,30.006 25.047,29.947 L25.236,30.407 L26.383,30.407 L26.572,29.947 C27.56,30.007 28.52,30.169 29.435,30.44 L29.457,30.947 L30.533,31.344 L30.88,30.964 C31.777,31.354 32.614,31.85 33.39,32.426 L33.241,32.9 L34.116,33.642 L34.564,33.408 C35.268,34.074 35.899,34.815 36.437,35.626 L36.126,36.031 L36.696,37.026 L37.199,36.96 C37.63,37.818 37.964,38.732 38.192,39.689 L37.768,39.96 L37.963,41.092 L38.464,41.201 C38.518,41.678 38.552,42.159 38.552,42.651 C38.552,43.142 38.518,43.626 38.464,44.102 L37.966,44.213 Z M32.287,42.652 C32.287,39.075 29.387,36.171 25.806,36.171 C22.228,36.171 19.328,39.075 19.328,42.652 C19.328,46.233 22.227,49.131 25.806,49.131 C29.387,49.131 32.287,46.233 32.287,42.652 Z M31.551,42.652 C31.551,45.827 28.979,48.396 25.805,48.396 C22.635,48.396 20.063,45.827 20.063,42.652 C20.063,39.481 22.635,36.912 25.805,36.912 C28.979,36.912 31.551,39.481 31.551,42.652 Z M29.891,42.652 C29.891,40.401 28.062,38.573 25.806,38.573 C23.553,38.573 21.724,40.401 21.724,42.652 C21.724,44.908 23.553,46.736 25.806,46.736 C28.062,46.736 29.891,44.908 29.891,42.652 Z M80.84,44.213 L80.638,45.342 L81.066,45.613 C80.837,46.57 80.503,47.483 80.071,48.342 L79.573,48.276 L78.996,49.268 L79.31,49.675 C78.773,50.487 78.142,51.228 77.437,51.894 L76.992,51.662 L76.112,52.398 L76.263,52.877 C75.488,53.453 74.651,53.95 73.754,54.341 L73.408,53.962 L72.329,54.352 L72.308,54.866 C71.392,55.137 70.433,55.3 69.445,55.359 L69.254,54.897 L68.108,54.895 L67.917,55.359 C66.929,55.299 65.969,55.138 65.054,54.867 L65.033,54.354 L63.956,53.96 L63.607,54.341 C62.711,53.951 61.876,53.454 61.099,52.878 L61.25,52.4 L60.371,51.661 L59.925,51.895 C59.221,51.228 58.589,50.488 58.052,49.675 L58.364,49.269 L57.792,48.276 L57.29,48.344 C56.86,47.484 56.524,46.571 56.297,45.613 L56.722,45.342 L56.525,44.213 L56.026,44.103 C55.971,43.626 55.937,43.143 55.937,42.652 C55.937,42.16 55.971,41.676 56.026,41.201 L56.523,41.091 L56.724,39.961 L56.297,39.69 C56.525,38.734 56.86,37.82 57.29,36.96 L57.791,37.026 L58.363,36.034 L58.051,35.628 C58.588,34.816 59.221,34.075 59.924,33.409 L60.37,33.642 L61.249,32.905 L61.098,32.427 C61.874,31.851 62.711,31.355 63.609,30.965 L63.955,31.343 L65.032,30.95 L65.053,30.441 C65.969,30.17 66.928,30.007 67.917,29.948 L68.105,30.408 L69.252,30.408 L69.442,29.948 C70.429,30.008 71.39,30.17 72.304,30.441 L72.326,30.948 L73.403,31.345 L73.749,30.965 C74.647,31.355 75.483,31.851 76.259,32.427 L76.111,32.901 L76.985,33.643 L77.433,33.409 C78.138,34.075 78.77,34.816 79.306,35.627 L78.996,36.032 L79.565,37.027 L80.068,36.961 C80.5,37.819 80.833,38.733 81.062,39.69 L80.638,39.961 L80.832,41.093 L81.333,41.202 C81.387,41.679 81.421,42.16 81.421,42.652 C81.421,43.143 81.387,43.627 81.333,44.103 L80.84,44.213 Z M75.161,42.652 C75.161,39.075 72.261,36.171 68.68,36.171 C65.102,36.171 62.202,39.075 62.202,42.652 C62.202,46.233 65.101,49.131 68.68,49.131 C72.261,49.131 75.161,46.233 75.161,42.652 Z M74.425,42.652 C74.425,45.827 71.853,48.396 68.68,48.396 C65.51,48.396 62.938,45.827 62.938,42.652 C62.938,39.481 65.51,36.912 68.68,36.912 C71.853,36.912 74.425,39.481 74.425,42.652 Z M72.765,42.652 C72.765,40.401 70.936,38.573 68.68,38.573 C66.427,38.573 64.598,40.401 64.598,42.652 C64.598,44.908 66.427,46.736 68.68,46.736 C70.936,46.736 72.765,44.908 72.765,42.652 Z M34.922,21.913 C34.922,21.913 34.653,21.453 33.82,21.453 C29.664,21.453 8.578,21.453 7.226,21.453 C6.662,21.453 6.537,21.96 7.245,22.408 C8.174,22.995 8.174,22.995 8.174,22.995 L34.112,22.995 C34.112,22.995 40.539,29.715 41.008,30.203 C41.477,30.691 42.057,30.318 41.641,29.804 C41.158,29.206 34.922,21.913 34.922,21.913 Z" id="path-1"></path>
        <rect id="path-3" x="0" y="0" width="94" height="59" rx="5"></rect>
    </defs>
    <g id="FMEA-web" stroke="none" stroke-width="1" fill="none" fill-rule="evenodd">
        <g id="C07-01" transform="translate(-190.000000, -657.000000)">
            <g id="assets" transform="translate(170.000000, 320.000000)">
                <g id="UI/Card/Group" transform="translate(0.000000, 322.000000)">
                    <g id="haul-truck">
                        <g transform="translate(20.000000, 15.000000)">
                            <g id="TRH">
                                <mask id="mask-2" fill="white">
                                    <use xlink:href="#path-1"></use>
                                </mask>
                                <use id="Shape" fill="#D0021B" fill-rule="nonzero" xlink:href="#path-1"></use>
                                <g id="Asset-Color" mask="url(#mask-2)">
                                    <g transform="translate(-2.000000, -2.000000)">
                                        <mask id="mask-4" fill="white">
                                            <use xlink:href="#path-3"></use>
                                        </mask>
                                        <use id="Base" stroke="none" fill="#FFFFFF" fill-rule="evenodd" xlink:href="#path-3"></use>
                                        <g id="↳-🎨Color" stroke="none" stroke-width="1" fill="none" fill-rule="evenodd" mask="url(#mask-4)">
                                            <rect id="Base" fill="#F9BC2E" x="0" y="0" width="94" height="59"></rect>
                                        </g>
                                    </g>
                                </g>
                            </g>
                        </g>
                    </g>
                </g>
            </g>
        </g>
    </g>
</svg>